<svg xmlns="http://www.w3.org/2000/svg" version="1.1" xmlns:xlink="http://www.w3.org/1999/xlink" xmlns:svgjs="http://svgjs.dev/svgjs" width="100%" height="100%" viewBox="0 0 1000 600"><rect width="1000" height="600" x="0" y="0" fill="#ffe8f5"/><g><rect width="333.3333333333333" height="333.3333333333333" y="171.98776285703974" fill="#8000ff" transform="matrix(0.8346379078844484,0,0,0.8346379078844484,0,17.346171631835062)" x="149.76554870605466"/><path d="M304.99363870886094 412.8531769642955L281.72968625534804 410.6704545844529Q280.9284337361653 389.9760360717674 280.9284337361653 349.38845156557926Q280.9284337361653 308.80086705939107 283.91240863519073 263.65443201302514L283.91240863519073 263.65443201302514L307.1763610887036 265.45034283188306Q304.1923861896782 314.18859951596465 304.1923861896782 359.3350345623306L304.1923861896782 359.3350345623306Q324.8868047023637 334.0817655094674 335.22019926009983 310.20996631726416L335.22019926009983 310.20996631726416L351.134732054902 324.1351825127161Q342.18280735782577 345.0230068058939 327.26293286269873 365.49639014087376L327.26293286269873 365.49639014087376Q342.7906540965161 383.5936453155186 351.93598457408467 399.3147723298284L351.93598457408467 399.3147723298284L336.8227042984653 413.6544294834783Q326.07486878253115 396.93864416949333 304.1923861896782 374.0615032769652L304.1923861896782 374.0615032769652Q304.1923861896782 396.1373916503106 304.99363870886094 412.8531769642955L304.99363870886094 412.8531769642955Z " fill="#ffe8f5" transform="matrix(0.8346379078844484,0,0,0.8346379078844484,0,17.346171631835062)"/><path d="M590.4046873506783 412.278285212663L567.2303754240728 410.1039732860575Q566.4322102864581 389.489294386975 566.4322102864581 349.05810172642447Q566.4322102864581 308.6269090658741 569.4046873506783 263.65443200165384L569.4046873506783 263.65443200165384L592.5789992772839 265.4434228273419Q589.6065222130636 313.99388154293825 589.6065222130636 358.9663586071584L589.6065222130636 358.9663586071584Q610.2212011121462 333.8103953044062 620.5147790937975 310.03057879064465L620.5147790937975 310.03057879064465L636.3679901029719 323.90213842367217Q627.4505589103113 344.70947787321353 612.5881735892104 365.1039732860575L612.5881735892104 365.1039732860575Q628.0560634974673 383.1314962218374 637.1661552405866 398.7920466805529L637.1661552405866 398.7920466805529L622.111109369027 413.07645035027764Q611.4046873506783 396.4250742034887 589.6065222130636 373.6360833778006L589.6065222130636 373.6360833778006Q589.6065222130636 395.62690906587403 590.4046873506783 412.278285212663L590.4046873506783 412.278285212663ZM672.4505589103113 394.2507622768832L672.4505589103113 394.2507622768832Q679.9643203782013 394.2507622768832 688.4964304699444 379.77369805669974L688.4964304699444 379.77369805669974L703.551476341504 388.69112924936024Q699.7808341396692 395.24158796495664 696.3129442314123 399.78287236862633Q692.8450543231554 404.3516797080759 685.9092745066416 408.5076430108282Q678.9734946901278 412.6636063135805 670.4689075341646 412.6636063135805L670.4689075341646 412.6636063135805Q657.9734946901278 412.6636063135805 649.4689075341646 402.06727603835105Q640.9367974424214 391.47094576312173 640.9367974424214 373.443422827342L640.9367974424214 373.443422827342Q640.9367974424214 352.82874392825937 648.2578983598527 334.99388154293825L648.2578983598527 334.99388154293825Q652.2212011121462 325.6636063135805 659.6523937726967 319.82874392825937Q667.0835864332471 313.99388154293825 674.9276231304948 313.99388154293825Q682.7441368919627 313.99388154293825 687.5056047818709 316.47094576312173Q692.2670726717793 318.9480099833052 695.1294579928801 322.00305585486484Q698.0193662497609 325.08562466220434 700.1936781763663 331.0305787906447Q702.3679901029719 336.9755329190851 703.2487240479261 340.7461751209199Q704.15698092866 344.4892943869749 704.7349625800362 351.6452576897272L704.7349625800362 351.6452576897272Q705.5331277176508 361.14067053376397 705.5331277176508 368.8746154878924L705.5331277176508 368.8746154878924Q689.6799167084764 373.22323934110335 664.5239534057242 376.8012209924795L664.5239534057242 376.8012209924795Q665.1019350571004 384.7278264970667 667.3037699194856 389.489294386975Q669.4780818460912 394.2507622768832 672.4505589103113 394.2507622768832ZM676.7991827635224 333.39755126770893L676.7991827635224 333.39755126770893Q672.4505589103113 333.39755126770893 668.9826690020544 342.1223219099107Q665.5147790937976 350.84709255211254 664.9092745066416 362.324156772296L664.9092745066416 362.324156772296Q675.4230359745316 360.14984484569055 683.15698092866 358.1681934695437L683.15698092866 358.1681934695437Q683.15698092866 333.39755126770893 676.7991827635224 333.39755126770893ZM745.1661552405866 394.2507622768832L745.1661552405866 394.2507622768832Q752.7074396442563 394.2507622768832 761.2120268002195 379.77369805669974L761.2120268002195 379.77369805669974L776.294595607559 388.69112924936024Q772.5239534057241 395.24158796495664 769.0560634974673 399.78287236862633Q765.5881735892104 404.3516797080759 758.6523937726967 408.5076430108282Q751.7166139561829 412.6636063135805 743.1845038644398 412.6636063135805L743.1845038644398 412.6636063135805Q730.7166139561829 412.6636063135805 722.1845038644398 402.06727603835105Q713.6523937726967 391.47094576312173 713.6523937726967 373.443422827342L713.6523937726967 373.443422827342Q713.6523937726967 352.82874392825937 721.0010176259077 334.99388154293825L721.0010176259077 334.99388154293825Q724.9643203782013 325.6636063135805 732.3955130387517 319.82874392825937Q739.8267056993021 313.99388154293825 747.6432194607701 313.99388154293825Q755.4872561580178 313.99388154293825 760.2212011121462 316.47094576312173Q764.9826690020545 318.9480099833052 767.8725772589352 322.00305585486484Q770.7349625800362 325.08562466220434 772.9092745066416 331.0305787906447Q775.0835864332471 336.9755329190851 775.991843313981 340.7461751209199Q776.8725772589352 344.4892943869749 777.4780818460912 351.6452576897272L777.4780818460912 351.6452576897272Q778.2762469837058 361.14067053376397 778.2762469837058 368.8746154878924L778.2762469837058 368.8746154878924Q762.4230359745316 373.22323934110335 737.2395497359994 376.8012209924795L737.2395497359994 376.8012209924795Q737.8450543231554 384.7278264970667 740.0193662497609 389.489294386975Q742.1936781763663 394.2507622768832 745.1661552405866 394.2507622768832ZM749.5423020295774 333.39755126770893L749.5423020295774 333.39755126770893Q745.1661552405866 333.39755126770893 741.6982653323297 342.1223219099107Q738.2303754240728 350.84709255211254 737.6523937726967 362.324156772296L737.6523937726967 362.324156772296Q748.1386323048067 360.14984484569055 755.8725772589352 358.1681934695437L755.8725772589352 358.1681934695437Q755.8725772589352 333.39755126770893 749.5423020295774 333.39755126770893ZM795.1202836809535 409.1131475979841L795.1202836809535 313.99388154293825L817.6890910204031 316.1681934695437L817.6890910204031 411.2874595245897L795.1202836809535 409.1131475979841ZM794.7074396442563 301.11314759798415L796.6890910204031 279.09479897413087L818.900100194715 281.6819549374337L816.9184488185682 303.86544117596577L794.7074396442563 301.11314759798415ZM892.991843313981 359.5718631943144L874.1661552405865 357.78287236862633Q874.5789992772839 355.00305585486484 874.5789992772839 350.6544320016539Q874.5789992772839 346.278285212663 872.7900084515957 341.7370008089933Q871.0010176259077 337.1681934695437 868.2212011121462 337.1681934695437L868.2212011121462 337.1681934695437Q862.6890910204031 337.1681934695437 860.2120268002195 349.9388356713786Q857.7349625800362 362.7370008089933 857.7349625800362 373.443422827342L857.7349625800362 373.443422827342Q857.7349625800362 391.47094576312173 865.0560634974672 391.47094576312173L865.0560634974672 391.47094576312173Q871.0010176259077 391.47094576312173 881.900100194715 370.6636063135805L881.900100194715 370.6636063135805L896.5698249653572 381.14984484569055Q891.2303754240728 395.62690906587403 883.1936781763663 404.15901915761714Q875.15698092866 412.6636063135805 863.8725772589352 412.6636063135805Q852.5881735892103 412.6636063135805 843.5606506534306 403.7461751209199Q834.5331277176508 394.82874392825937 834.5331277176508 376.60856044202086L834.5331277176508 376.60856044202086Q834.5331277176508 357.1773677814703 840.8909258827885 337.9663586071584L840.8909258827885 337.9663586071584Q844.4413845983847 327.45259713926856 851.4872561580178 320.70947787321353Q858.5331277176508 313.99388154293825 869.432210286458 313.99388154293825Q880.3312928552655 313.99388154293825 887.5423020295774 325.08562466220434Q894.7808341396692 336.1773677814703 894.7808341396692 349.6636063135805L894.7808341396692 349.6636063135805Q894.7808341396692 355.38837695578223 892.991843313981 359.5718631943144L892.991843313981 359.5718631943144ZM926.294595607559 372.83791824018596L926.294595607559 372.83791824018596Q926.294595607559 395.24158796495664 936.2028524882929 395.24158796495664L936.2028524882929 395.24158796495664Q940.551476341504 395.24158796495664 943.5239534057241 382.6360833778006Q946.4964304699444 370.05810172642447 946.4964304699444 358.581037506241L946.4964304699444 358.581037506241Q946.4964304699444 333.2048907172502 938.1845038644398 333.2048907172502L938.1845038644398 333.2048907172502Q932.8450543231554 333.2048907172502 929.5698249653572 346.77369805669974Q926.294595607559 360.3425053961493 926.294595607559 372.83791824018596ZM903.1202836809535 371.0489274144979L903.1202836809535 371.0489274144979Q903.1202836809535 352.6360833778006 910.6340451488434 334.99388154293825L910.6340451488434 334.99388154293825Q914.597347901137 326.07645035027775 921.8358800112287 320.4342485154153Q929.0744121213204 314.76452374477316 937.991843313981 314.76452374477316Q946.9092745066416 314.76452374477316 953.3496414791186 318.83791824018596Q959.7900084515957 322.91131273559876 963.1478066167333 329.62690906587403L963.1478066167333 329.62690906587403Q969.6982653323298 342.92048704752546 969.6982653323298 358.581037506241L969.6982653323298 358.581037506241Q969.6982653323298 380.15901915761714 960.8634029470086 396.92048704752546Q952.0560634974672 413.6544320016538 936.2028524882929 413.6544320016538L936.2028524882929 413.6544320016538Q903.1202836809535 413.6544320016538 903.1202836809535 371.0489274144979ZM1022.2120268002195 314.186542093397L1022.2120268002195 314.186542093397Q1048.3588157910453 314.186542093397 1048.3588157910453 357.78287236862633L1048.3588157910453 357.78287236862633Q1048.3588157910453 380.76452374477316 1045.7991827635224 406.52599163468136L1045.7991827635224 406.52599163468136L1022.597347901137 404.3516797080759Q1024.7716598277425 381.75534943284646 1024.7716598277425 358.6636063135805Q1024.7716598277425 335.5718631943144 1018.2487240479259 335.5718631943144L1018.2487240479259 335.5718631943144Q1015.0835864332471 335.5718631943144 1010.1294579928801 351.53516594660795Q1005.1753295525132 367.4984686989016 1003.9643203782013 382.7461751209199L1003.9643203782013 382.7461751209199Q1004.3771644148985 390.8654411759658 1005.5606506534306 412.08562466220434L1005.5606506534306 412.08562466220434L982.386338726825 409.883789799819Q980.1845038644398 381.9480099833052 980.1845038644398 360.75534943284646Q980.1845038644398 339.53516594660795 981.3955130387517 322.69112924936024L981.3955130387517 322.69112924936024L996.037714873614 324.2874595245897Q996.4505589103113 325.883789799819 999.0101919378342 337.1681934695437L999.0101919378342 337.1681934695437Q1010.5147790937975 314.186542093397 1022.2120268002195 314.186542093397Z " fill="#8000ff" transform="matrix(0.8346379078844484,0,0,0.8346379078844484,0,17.346171631835062)"/></g></svg>